<?xml version="1.0" encoding="UTF-8"?>
<svg id="Capa_1" data-name="Capa 1" xmlns="http://www.w3.org/2000/svg" viewBox="0 0 369.53 127.24">
  <defs>
    <style>
      .cls-1 {
        fill: #fff;
      }

      .cls-2 {
        fill: #ffd600;
      }

      .cls-3 {
        fill: #0033a0;
      }

      .cls-4 {
        fill: #00aec7;
      }
    </style>
  </defs>
  <path class="cls-2" d="m361.72,4.29l4.3,4.42c1.78,2.86,2.9,5.79,3.37,8.78l.14,3.74c-.03,28.56-.05,57.09-.08,85.58-.01,11.84-8.96,20.32-20.2,20.32-108.49.01-216.97.02-325.46,0-3.31.27-6.7,0-10.19-.83l-4.74-2.48-2.1-1.57c-3.45-3.29-5.7-7.32-6.76-12.09V16.86C1.91,9.11,6.2,3.96,12.88,1.39c2.41-.93,5.46-1.39,9.15-1.39,108.93.09,217.82.09,326.69,0,4.96,0,9.1,1.44,13,4.28Zm2.8,16.31c0-8.58-6.96-15.54-15.54-15.54H20.3c-8.58,0-15.54,6.96-15.54,15.54h0v85.94c0,8.58,6.96,15.54,15.54,15.54h328.68c8.58,0,15.54-6.96,15.54-15.54V20.6Z"/>
  <path class="cls-1" d="m364.64,106.59c0,8.58-6.96,15.54-15.54,15.54H20.43c-8.58,0-15.54-6.96-15.54-15.54V20.65c0-8.58,6.96-15.54,15.54-15.54h328.68c8.58,0,15.54,6.96,15.54,15.54v85.94ZM202.05,41.61c-3.24,2.86-11,.96-10.9-3.97.01-.69-.32-1.03-1.01-1.03h-7.48c-.72,0-1.3.58-1.3,1.3,0,0,0,0,0,.01.08,12.25,12.37,15.24,22.06,12.74,6-1.55,9.18-5.24,9.54-11.07.71-11.49-12.62-11.49-19.58-15.49-2.42-1.4-2.04-4.78.48-5.68,3.65-1.3,8.63.15,9.07,4.67.09.85.56,1.27,1.41,1.27h7.06c.89,0,1.34-.44,1.33-1.33-.03-6.13-3.05-10.28-9.04-12.45-6.9-2.49-18.03-1.27-21,6.66-1.59,4.27-.98,8.06,1.84,11.39,3.59,4.23,10.81,5.9,16.03,7.81,2.24.81,3.58,3.32,1.49,5.17Zm36.35-4.47c-.1,3.28-2.38,5.83-5.76,5.74-5.25-.15-6.14-4.09-6.07-8.43.06-3.85.1-7.26.11-10.22.03-8.2,11.73-8.51,11.7-.11,0,.29.23.52.52.52.01,0,.03,0,.04,0l8.71-.56c.44-.03.78-.4.76-.84-.35-6.93-3.86-11.3-10.55-13.11-7.5-2.02-16.44.11-19.8,7.62-2.15,4.82-.9,11.86-1.23,17.54-.65,11.56,8.48,17.86,19.46,15.82,7.53-1.4,11.57-5.88,12.12-13.43.04-.5-.34-.94-.84-.98-.01,0-.02,0-.03,0l-8.24-.39c-.47-.02-.88.34-.9.82,0,0,0,0,0,.01Zm45.88-13.27c-.07-8.04-6.65-14.5-14.69-14.43h0l-2.86.02c-8.04.07-14.5,6.65-14.43,14.69h0s.11,12.98.11,12.98c.07,8.04,6.65,14.5,14.69,14.43h0l2.86-.02c8.04-.07,14.5-6.65,14.43-14.69h0s-.11-12.98-.11-12.98Zm-244.16-4.56c0-.39.31-.7.7-.7l9.84-.04c.39,0,.7-.31.7-.7l.02-7.31c0-.39-.31-.7-.7-.7h-30.59c-.39,0-.7.31-.7.7v7.31c.01.39.32.7.71.7l9.34.03c.39,0,.7.31.7.7h0s-.02,30.85-.02,30.85c0,.39.31.7.7.7h0l8.62.02c.39,0,.7-.31.7-.7l-.02-30.86Zm36.27,17.81c0,7.7-11.27,7.61-11.42.21-.11-5.61-.13-14.5-.06-26.66,0-.54-.27-.81-.81-.81h-8.19c-.51,0-.77.27-.77.79-.02,9.72-.02,18.87.01,27.44.05,15.25,23.63,17.92,29.76,5.69,1.13-2.25,1.65-5.69,1.56-10.3-.15-8.12-.15-15.63-.02-22.54.01-.72-.34-1.08-1.06-1.08h-8.04c-.53,0-.96.43-.96.97-.01,8.35-.01,17.11,0,26.29Zm52.99-9.44v22.43c0,.5.25.75.75.75h8.75c.33,0,.5-.17.5-.5V10.61c0-.41-.34-.74-.75-.74h-8.26c-.39,0-.76.19-.96.52l-7.72,12.28c-.11.17-.34.23-.51.12-.05-.03-.09-.07-.12-.12l-7.85-12.36c-.19-.29-.5-.46-.84-.46l-8.24.02c-.55,0-1,.44-1,.99v39.25c0,.5.25.75.75.75h8.5c.5,0,.75-.25.75-.75v-22.51c0-.79.21-.85.63-.18l4.58,7.4c.23.36.55.54.97.54h4.06c.39,0,.76-.2.97-.53l4.56-7.29c.32-.52.48-.47.48.14Zm39.22,17.18c.27,0,.5.17.58.43l1.5,5.14c.08.26.31.43.58.43h9.48c.33,0,.6-.26.6-.59,0-.06,0-.12-.03-.18l-12.67-39.81c-.08-.25-.31-.42-.57-.42h-11.49c-.26.01-.49.18-.57.43l-12.61,39.8c-.1.32.08.65.39.75.06.02.12.03.18.03h9.47c.27,0,.5-.18.58-.44l1.5-5.14c.08-.26.31-.43.58-.43h12.5Zm128.6-26.26c.38,0,.69.31.69.69h0s-.01,30.87-.01,30.87c0,.38.31.69.69.69h0l8.63.02c.38,0,.69-.31.69-.69h0l-.02-30.88c0-.38.31-.69.69-.69h0l9.87-.04c.38,0,.69-.31.69-.69h0v-7.33c0-.38-.31-.69-.69-.69h-30.6c-.38,0-.69.32-.69.7h0v7.32c0,.38.31.69.69.69h0l9.37.03Zm45.67,26.27c.27,0,.5.18.58.43l1.56,5.13c.08.25.31.43.58.43h9.41c.34,0,.61-.28.61-.61,0-.06,0-.12-.03-.18l-12.65-39.78c-.08-.26-.32-.43-.59-.43h-11.47c-.27.01-.5.19-.58.44l-12.61,39.77c-.1.32.07.66.39.77.06.02.13.03.19.03h9.43c.27-.01.5-.19.58-.44l1.56-5.14c.08-.25.31-.43.58-.43h12.46ZM47.87,95.61c6.65,2.28,5.42,9.52-.94,10.37-6.09.8-13.8-1.2-13.56-8.64.02-.52-.4-.96-.92-.98-.01,0-.02,0-.03,0h-12.97c-.73,0-1.33.59-1.35,1.33-.31,18.31,15.98,23.53,31.27,21.45,10.22-1.38,18.32-7.81,18.56-18.79.19-8.62-5.23-14.03-12.95-16.87-5.04-1.85-10.24-3.73-15.61-5.62-2.21-.78-5-2.73-5.03-5.48-.07-6.35,8.24-6.49,12.33-4.8,3.76,1.55,5.61,4.33,5.56,8.33,0,.38.3.69.68.7,0,0,0,0,.01,0h13.51c.51,0,.79-.25.85-.75.53-4.63-.45-8.77-2.93-12.43-6.95-10.22-21.49-12.03-32.47-8.38-8.33,2.77-13.44,9.65-12.95,18.54.5,9.18,7.77,14.33,15.61,17.25,4.28,1.59,8.72,3.18,13.33,4.77Zm113.72.13c.72,7.54-4.29,11.61-11.18,10.14-5.22-1.12-7.68-5.25-7.58-10.58.11-6.43.11-12.82,0-19.17-.1-5.21,4.01-9.63,9.26-9.45,5.8.19,8.94,3.3,9.43,9.31.02.21.19.37.4.37h14.19c.41,0,.74-.32.76-.72.91-20.7-25.13-27.72-39.9-18.14-6.37,4.14-9.64,10.83-9.8,20.08-.1,5.67-.1,11.4-.01,17.18.22,13.63,6.63,21.73,19.22,24.31,2.21.45,4.57.62,7.07.51,11.14-.52,19.97-6.05,22.7-17.06,1.41-5.69.6-12.86.76-19.04.01-.47-.36-.86-.83-.87,0,0-.01,0-.02,0h-24.43c-.41,0-.75.34-.75.75v10.99c0,.41.34.75.75.75h9.27c.42.02.65.23.69.64Zm-70.12,9.62c-.47,0-.86-.39-.86-.86v-11.04c0-.47.4-.86.87-.86h0l18.29.02c.47,0,.86-.39.86-.86h0v-11.54c-.01-.47-.4-.86-.87-.86h-18.29c-.47,0-.86-.38-.86-.85v-10.3c0-.47.4-.86.87-.86h0l28.79.02c.47,0,.86-.39.86-.86h0v-11.54c.01-.47-.38-.86-.85-.86h-44.29c-.47,0-.86.39-.86.86h0v63.01c.01.47.4.86.87.86h44.29c.47,0,.86-.38.86-.86,0,0,0,0,0-.01l-.06-11.73c0-.47-.39-.85-.86-.85l-28.76-.03Zm115.74.65c-4.45-.52-7.35-4.46-7.34-8.79.02-15.1.02-29.14,0-42.13,0-.54-.44-.98-.98-.98h-13.72c-.55,0-.82.27-.81.82.07,13.42.06,26.99-.05,40.7-.03,3.32.33,6.21,1.06,8.68,2.72,9.14,10.98,14.22,20.42,15.12,11.08,1.05,21.97-3.04,26.34-13.73,1.1-2.68,1.63-7.02,1.58-13.01-.11-13.31-.13-25.82-.05-37.51,0-.59-.46-1.06-1.04-1.07,0,0,0,0-.01,0h-13.71c-.51,0-.77.26-.77.77-.03,12.53-.02,25.73.03,39.61.02,7.1-2.58,12.5-10.95,11.52Zm51.17-12.9h5.27c.37,0,.63.17.78.51l10.81,24.28c.25.58.83.96,1.47.96h14.12c.48-.01.74-.25.77-.72.02-.34-.04-.66-.19-.97-3.85-8.01-7.83-16.3-11.94-24.87-.18-.37-.08-.63.29-.79,6.67-2.87,10.41-7.8,11.2-14.79,1.02-8.99-2.94-17.64-11.66-21.17-2.53-1.03-6.21-1.52-11.04-1.49-9.26.07-17.72.08-25.38.02-.41,0-.75.34-.75.75v63.12c0,.47.37.85.84.85l13.56.02c.61,0,1.1-.49,1.1-1.1h0v-23.86c0-.5.25-.75.75-.75Zm57.4,17.05c.13-.48.57-.81,1.07-.81h19.85c.5,0,.93.33,1.07.81l2.27,7.88c.14.47.57.8,1.06.8l14.48.02c.61,0,1.11-.49,1.11-1.11,0-.12-.02-.23-.05-.34l-19.93-62.53c-.15-.46-.58-.77-1.06-.77h-17.84c-.49-.01-.92.31-1.06.77l-19.82,62.56c-.18.59.14,1.21.73,1.39.11.03.22.05.33.05l14.51-.08c.49,0,.92-.33,1.06-.8l2.22-7.84Z"/>
  <path class="cls-3" d="m202.05,41.61c2.09-1.85.75-4.36-1.49-5.17-5.22-1.91-12.44-3.58-16.03-7.81-2.82-3.33-3.43-7.12-1.84-11.39,2.97-7.93,14.1-9.15,21-6.66,5.99,2.17,9.01,6.32,9.04,12.45,0,.89-.44,1.33-1.33,1.33h-7.06c-.85,0-1.32-.42-1.41-1.27-.44-4.52-5.42-5.97-9.07-4.67-2.52.9-2.9,4.28-.48,5.68,6.96,4,20.29,4,19.58,15.49-.36,5.83-3.54,9.52-9.54,11.07-9.69,2.5-21.98-.49-22.06-12.74,0-.72.57-1.3,1.29-1.31,0,0,0,0,.01,0h7.48c.69,0,1.02.34,1.01,1.03-.1,4.93,7.66,6.83,10.9,3.97Z"/>
  <path class="cls-3" d="m232.63,42.88c3.38.09,5.66-2.46,5.76-5.74.02-.47.41-.85.89-.83,0,0,0,0,.01,0l8.24.39c.5.02.89.44.87.95,0,.01,0,.02,0,.03-.55,7.55-4.59,12.03-12.12,13.43-10.98,2.04-20.11-4.26-19.46-15.82.33-5.68-.92-12.72,1.23-17.54,3.36-7.51,12.3-9.64,19.8-7.62,6.69,1.81,10.2,6.18,10.55,13.11.02.44-.32.81-.76.84l-8.71.56c-.29.02-.54-.19-.56-.48,0-.01,0-.03,0-.04.03-8.4-11.67-8.09-11.7.11-.01,2.96-.05,6.37-.11,10.22-.07,4.34.82,8.28,6.07,8.43Z"/>
  <path class="cls-3" d="m284.39,36.85c.07,8.04-6.39,14.62-14.43,14.69h0l-2.86.02c-8.04.07-14.62-6.39-14.69-14.43h0l-.11-12.98c-.07-8.04,6.39-14.62,14.43-14.69h0l2.86-.02c8.04-.07,14.62,6.39,14.69,14.43h0l.11,12.98Zm-10.07-13.04c0-3.19-2.59-5.77-5.78-5.76h-.58c-3.19,0-5.77,2.59-5.76,5.78h0s.02,13.44.02,13.44c0,3.19,2.59,5.77,5.78,5.76h.58c3.19,0,5.77-2.59,5.76-5.78h0s-.02-13.44-.02-13.44Z"/>
  <path class="cls-3" d="m40.12,19.31l.02,30.86c0,.39-.31.7-.7.7l-8.62-.02c-.39,0-.7-.31-.7-.7h0l.02-30.85c0-.39-.31-.7-.7-.7h0l-9.34-.03c-.39,0-.7-.31-.7-.7v-7.31c-.01-.39.3-.7.69-.7h30.59c.39,0,.7.31.7.7h0s-.02,7.31-.02,7.31c0,.39-.31.7-.7.7l-9.84.04c-.39,0-.7.31-.7.7Z"/>
  <path class="cls-3" d="m64.97,37.33c.15,7.4,11.43,7.49,11.42-.21-.01-9.18-.01-17.94,0-26.29,0-.54.43-.97.96-.97h8.04c.72,0,1.07.36,1.06,1.08-.13,6.91-.13,14.42.02,22.54.09,4.61-.43,8.05-1.56,10.3-6.13,12.23-29.71,9.56-29.76-5.69-.03-8.57-.03-17.72-.01-27.44,0-.52.26-.78.77-.78h8.19c.54-.01.81.26.81.8-.07,12.16-.05,21.05.06,26.66Z"/>
  <path class="cls-3" d="m128.9,27.54l-4.56,7.29c-.21.33-.58.53-.97.53h-4.06c-.42,0-.74-.18-.97-.54l-4.58-7.4c-.42-.67-.63-.61-.63.18v22.51c0,.5-.25.75-.75.75h-8.5c-.5,0-.75-.25-.75-.75V10.86c0-.55.45-.99,1-.99l8.24-.02c.34,0,.65.17.84.46l7.85,12.36c.11.17.34.23.51.12.05-.03.09-.07.12-.12l7.72-12.28c.2-.33.57-.53.96-.53h8.26c.41.01.75.34.75.75v39.75c0,.33-.17.5-.5.5h-8.75c-.5,0-.75-.25-.75-.75v-22.43c0-.61-.16-.66-.48-.14Z"/>
  <path class="cls-3" d="m168.6,44.86h-12.5c-.27,0-.5.17-.58.43l-1.5,5.14c-.08.26-.31.43-.58.43h-9.47c-.33,0-.6-.26-.6-.59,0-.06,0-.12.03-.18l12.61-39.8c.08-.25.31-.42.57-.42h11.49c.26,0,.49.16.57.41l12.67,39.81c.1.32-.08.65-.39.75-.06.02-.12.03-.18.03h-9.48c-.27,0-.5-.18-.58-.44l-1.5-5.14c-.08-.26-.31-.43-.58-.43Zm-1.98-8.21l-4.08-13.76c-.17-.59-.35-.59-.52,0l-4.06,13.94c-.07.22.06.45.27.51.04.01.08.02.12.02h7.74c.49,0,.67-.24.53-.71Z"/>
  <path class="cls-3" d="m297.2,18.6l-9.37-.03c-.38,0-.69-.31-.69-.69h0v-7.32c0-.38.31-.69.69-.69h30.6c.38-.01.69.3.69.68h0v7.33c0,.38-.31.69-.69.69h0l-9.87.04c-.38,0-.69.31-.69.69h0s.02,30.88.02,30.88c0,.38-.31.69-.69.69h0l-8.63-.02c-.38,0-.69-.31-.69-.69h0s.01-30.87.01-30.87c0-.38-.31-.69-.69-.69h0Z"/>
  <path class="cls-3" d="m342.86,44.87h-12.46c-.27,0-.5.17-.58.42l-1.56,5.14c-.08.25-.31.43-.58.43h-9.43c-.34.01-.61-.26-.61-.6,0-.06.01-.13.03-.19l12.61-39.77c.08-.25.31-.43.58-.43h11.47c.27-.01.51.16.59.42l12.65,39.78c.1.32-.08.66-.4.76-.06.02-.12.03-.18.03h-9.41c-.27,0-.5-.18-.58-.43l-1.56-5.13c-.08-.25-.31-.43-.58-.43Zm-10.63-7.92c-.05.18.05.36.23.41.03,0,.05.01.08.01h8.11c.18,0,.33-.15.34-.33,0-.04,0-.07-.02-.11l-4.08-13.88c-.05-.17-.24-.27-.41-.22-.1.03-.18.11-.22.22l-4.03,13.9Z"/>
  <rect class="cls-1" x="262.21" y="18.05" width="12.12" height="24.98" rx="5.77" ry="5.77" transform="translate(-.05 .47) rotate(-.1)"/>
  <path class="cls-1" d="m162.54,22.89l4.08,13.76c.14.47-.04.71-.53.71h-7.74c-.23,0-.41-.19-.41-.41,0-.04,0-.08.02-.12l4.06-13.94c.17-.59.35-.59.52,0Z"/>
  <path class="cls-1" d="m332.23,36.95l4.03-13.9c.05-.17.24-.27.41-.22.1.03.18.11.22.22l4.08,13.88c.06.17-.04.36-.21.41-.03.01-.07.02-.11.02h-8.11c-.18,0-.33-.15-.32-.33,0-.03,0-.06.01-.08Z"/>
  <path class="cls-4" d="m47.87,95.61c-4.61-1.59-9.05-3.18-13.33-4.77-7.84-2.92-15.11-8.07-15.61-17.25-.49-8.89,4.62-15.77,12.95-18.54,10.98-3.65,25.52-1.84,32.47,8.38,2.48,3.66,3.46,7.8,2.93,12.43-.06.5-.34.75-.85.75h-13.51c-.38,0-.69-.31-.69-.69,0,0,0,0,0-.01.05-4-1.8-6.78-5.56-8.33-4.09-1.69-12.4-1.55-12.33,4.8.03,2.75,2.82,4.7,5.03,5.48,5.37,1.89,10.57,3.77,15.61,5.62,7.72,2.84,13.14,8.25,12.95,16.87-.24,10.98-8.34,17.41-18.56,18.79-15.29,2.08-31.58-3.14-31.27-21.45.02-.74.62-1.33,1.35-1.33h12.97c.52,0,.95.42.95.95,0,.01,0,.02,0,.03-.24,7.44,7.47,9.44,13.56,8.64,6.36-.85,7.59-8.09.94-10.37Z"/>
  <path class="cls-4" d="m160.9,95.11h-9.27c-.41-.01-.75-.35-.75-.76v-10.99c0-.41.34-.75.75-.75h24.43c.47,0,.85.38.85.85,0,0,0,.01,0,.02-.16,6.18.65,13.35-.76,19.04-2.73,11.01-11.56,16.54-22.7,17.06-2.5.11-4.86-.06-7.07-.51-12.59-2.58-19-10.68-19.22-24.31-.09-5.78-.09-11.51.01-17.18.16-9.25,3.43-15.94,9.8-20.08,14.77-9.58,40.81-2.56,39.9,18.14-.02.4-.35.72-.76.72h-14.19c-.21,0-.38-.16-.4-.37-.49-6.01-3.63-9.12-9.43-9.31-5.25-.18-9.36,4.24-9.26,9.45.11,6.35.11,12.74,0,19.17-.1,5.33,2.36,9.46,7.58,10.58,6.89,1.47,11.9-2.6,11.18-10.14-.04-.41-.27-.62-.69-.63Z"/>
  <path class="cls-4" d="m91.47,105.36l28.76.03c.47,0,.85.38.86.85l.06,11.73c0,.47-.38.86-.85.87,0,0,0,0-.01,0h-44.29c-.47,0-.86-.39-.86-.86h0v-63.01c-.01-.47.38-.86.85-.86h44.29c.47,0,.86.39.86.86h0v11.54c-.01.47-.4.86-.87.86h0l-28.79-.02c-.47,0-.86.39-.86.86h0v10.3c0,.47.38.86.85.86h18.29c.47-.01.86.38.86.85h0v11.54c.01.47-.38.86-.85.86h0l-18.29-.02c-.47,0-.86.39-.86.86h0v11.04c0,.47.38.86.85.86Z"/>
  <path class="cls-4" d="m207.21,106.01c8.37.98,10.97-4.42,10.95-11.52-.05-13.88-.06-27.08-.03-39.61,0-.51.26-.77.77-.77h13.71c.58,0,1.05.47,1.05,1.06,0,0,0,0,0,.01-.08,11.69-.06,24.2.05,37.51.05,5.99-.48,10.33-1.58,13.01-4.37,10.69-15.26,14.78-26.34,13.73-9.44-.9-17.7-5.98-20.42-15.12-.73-2.47-1.09-5.36-1.06-8.68.11-13.71.12-27.28.05-40.7,0-.55.26-.82.81-.82h13.72c.54,0,.98.44.98.98h0c.02,12.99.02,27.03,0,42.13-.01,4.33,2.89,8.27,7.34,8.79Z"/>
  <path class="cls-4" d="m257.63,93.86v23.86c0,.61-.49,1.1-1.1,1.1h0l-13.56-.02c-.47,0-.85-.38-.85-.85v-63.12c0-.41.35-.75.76-.75,7.66.06,16.12.05,25.38-.02,4.83-.03,8.51.46,11.04,1.49,8.72,3.53,12.68,12.18,11.66,21.17-.79,6.99-4.53,11.92-11.2,14.79-.37.16-.47.42-.29.79,4.11,8.57,8.09,16.86,11.94,24.87.15.31.21.63.19.97-.03.47-.29.71-.77.71h-14.12c-.64,0-1.22-.37-1.47-.95l-10.81-24.28c-.15-.34-.41-.51-.78-.51h-5.27c-.5,0-.75.25-.75.75Zm.02-26.1l-.04,12.94c0,.22.18.4.4.4l10.38.04c3.99.01,7.23-2.95,7.24-6.62h0v-.46c0-3.67-3.21-6.65-7.2-6.66l-10.38-.04c-.22,0-.4.18-.4.4h0Z"/>
  <path class="cls-4" d="m315.77,110.16l-2.22,7.84c-.14.47-.57.8-1.06.8l-14.51.08c-.61,0-1.11-.5-1.11-1.11,0-.11.02-.22.05-.33l19.82-62.56c.14-.46.57-.78,1.06-.78h17.84c.48,0,.91.32,1.06.78l19.93,62.53c.19.58-.13,1.21-.72,1.4-.11.04-.23.05-.34.05l-14.48-.02c-.49,0-.92-.33-1.06-.8l-2.27-7.88c-.14-.48-.57-.8-1.07-.8h-19.85c-.5-.01-.94.32-1.07.8Zm3.87-13.22c-.05.18.06.37.24.42.03,0,.05.01.08.01l13.53-.02c.19,0,.34-.16.34-.34,0-.03,0-.06-.02-.1l-6.8-23.04c-.06-.18-.25-.28-.42-.23-.11.03-.19.12-.23.23l-6.72,23.07Z"/>
  <path class="cls-1" d="m257.64,67.76c0-.22.18-.4.4-.4h0l10.38.04c3.99.01,7.21,2.99,7.2,6.66v.46c0,3.67-3.25,6.63-7.24,6.62,0,0,0,0,0,0l-10.38-.04c-.22,0-.4-.18-.4-.4l.04-12.94Z"/>
  <path class="cls-1" d="m319.64,96.94l6.72-23.07c.06-.18.25-.28.42-.23.11.03.19.12.23.23l6.8,23.04c.06.18-.05.37-.22.42-.03,0-.06.01-.1.02l-13.53.02c-.19,0-.34-.16-.33-.35,0-.03,0-.06.01-.08Z"/>
</svg>